<?xml version="1.0" encoding="UTF-8" standalone="no"?>
<!-- Created with Inkscape (http://www.inkscape.org/) -->

<svg
   width="78.365021mm"
   height="78.365021mm"
   viewBox="0 0 78.36502 78.36502"
   version="1.1"
   id="svg1"
   inkscape:version="1.4.2 (ebf0e940, 2025-05-08)"
   sodipodi:docname="inventiva_logo_sm.svg"
   inkscape:export-filename="inventiva_logo_sm.png"
   inkscape:export-xdpi="600"
   inkscape:export-ydpi="600"
   xmlns:inkscape="http://www.inkscape.org/namespaces/inkscape"
   xmlns:sodipodi="http://sodipodi.sourceforge.net/DTD/sodipodi-0.dtd"
   xmlns="http://www.w3.org/2000/svg"
   xmlns:svg="http://www.w3.org/2000/svg">
  <sodipodi:namedview
     id="namedview1"
     pagecolor="#ffffff"
     bordercolor="#000000"
     borderopacity="0.25"
     inkscape:showpageshadow="2"
     inkscape:pageopacity="0.0"
     inkscape:pagecheckerboard="0"
     inkscape:deskcolor="#d1d1d1"
     inkscape:document-units="mm"
     inkscape:zoom="1.3876567"
     inkscape:cx="148.09138"
     inkscape:cy="213.30924"
     inkscape:window-width="1512"
     inkscape:window-height="949"
     inkscape:window-x="0"
     inkscape:window-y="33"
     inkscape:window-maximized="0"
     inkscape:current-layer="layer1" />
  <defs
     id="defs1" />
  <g
     inkscape:label="Capa 1"
     inkscape:groupmode="layer"
     id="layer1"
     transform="translate(-63.66967,-143.57384)">
    <circle
       style="fill:#fff3e4;fill-opacity:1;stroke:none;stroke-width:0.226507;stroke-linecap:round;paint-order:markers fill stroke"
       id="path1"
       cx="102.85218"
       cy="182.75635"
       r="39.18251" />
    <path
       style="fill:#fff3e4;fill-opacity:1;stroke:none;stroke-width:0.275795;stroke-linecap:round;stroke-opacity:1;paint-order:markers fill stroke"
       d="m 99.286504,215.37946 c -2.276534,-0.33443 -4.964895,-1.27507 -7.758888,-2.71478 -1.777238,-0.91578 -3.008772,-1.86455 -5.027095,-3.87285 -2.257404,-2.24619 -2.887162,-3.0947 -4.048765,-5.45517 -0.756559,-1.53738 -1.517498,-3.52349 -1.690981,-4.41355 -0.434065,-2.22705 -0.427606,-30.18548 0.0075,-32.36606 0.745373,-3.7357 3.814413,-8.69519 7.032753,-11.36473 7.15893,-5.93818 17.562192,-7.00786 26.094782,-2.68311 2.31231,1.17201 5.53798,3.85388 7.06768,5.87619 1.73764,2.29723 3.55876,6.03772 3.97851,8.17165 0.4282,2.17688 0.43321,30.15278 0.006,32.36606 -0.17189,0.89006 -0.92942,2.87119 -1.68341,4.40247 -1.14546,2.32634 -1.81124,3.22793 -4.04876,5.4828 -2.11865,2.13505 -3.16944,2.94288 -5.03177,3.86828 -3.39096,1.68498 -5.68618,2.39781 -8.76511,2.72221 -3.07673,0.32417 -3.80936,0.32185 -6.132237,-0.0194 z"
       id="path16" />
    <path
       style="baseline-shift:baseline;display:inline;overflow:visible;fill:#6b4f4f;fill-opacity:1;stroke:#6b4f4f;stroke-width:1.03231;stroke-linecap:round;stroke-linejoin:round;stroke-dasharray:none;stroke-opacity:1;paint-order:stroke fill markers;enable-background:accumulate;stop-color:#000000"
       d="m 114.07773,154.61392 a 0.24975308,0.24975308 0 0 0 -0.1665,0.0943 c -6.70034,8.58068 -18.769544,10.76262 -28.049736,5.0705 a 0.24975308,0.24975308 0 0 0 -0.343427,0.082 0.24975308,0.24975308 0 0 0 0.08262,0.34341 c 9.493314,5.82283 21.850493,3.58951 28.704683,-5.18823 a 0.24975308,0.24975308 0 0 0 -0.0436,-0.35057 0.24975308,0.24975308 0 0 0 -0.18405,-0.0514 z"
       id="path21" />
    <path
       id="path22"
       style="baseline-shift:baseline;display:inline;overflow:visible;fill:#6b4f4f;fill-opacity:1;stroke:#6b4f4f;stroke-width:1.03231;stroke-linecap:round;stroke-dasharray:none;stroke-opacity:1;paint-order:markers fill stroke;enable-background:accumulate;stop-color:#000000"
       d="m 102.85193,149.32092 c -13.031389,0 -23.584096,9.81094 -23.584096,22.02914 v 22.81256 c 0,12.21819 10.552707,22.02915 23.584096,22.02915 13.03142,0 23.5846,-9.81096 23.5846,-22.02915 v -22.81256 c 0,-12.2182 -10.55318,-22.02914 -23.5846,-22.02914 z m 0,1.28467 c 12.38852,0 22.29941,9.2661 22.29941,20.74447 v 22.81256 c 0,11.47837 -9.91089,20.74448 -22.29941,20.74448 -12.388491,0 -22.29942,-9.26611 -22.29942,-20.74448 v -22.81256 c 0,-11.47837 9.910929,-20.74447 22.29942,-20.74447 z m 0,0.94672 c -11.81023,0 -21.342373,8.87559 -21.342373,19.91248 v 22.5826 c 0,11.03689 9.532143,19.91248 21.342373,19.91248 11.81026,0 21.34288,-8.87559 21.34288,-19.91248 v -22.5826 c 0,-11.03689 -9.53262,-19.91248 -21.34288,-19.91248 z m 0,0.49971 c 11.56037,0 20.84317,8.66346 20.84317,19.41277 v 22.5826 c 0,10.74931 -9.2828,19.41328 -20.84317,19.41328 -11.560344,0 -20.842662,-8.66397 -20.842662,-19.41328 v -22.5826 c 0,-10.74931 9.282318,-19.41277 20.842662,-19.41277 z"
       inkscape:export-filename="path22.png"
       inkscape:export-xdpi="96"
       inkscape:export-ydpi="96" />
    <path
       style="baseline-shift:baseline;display:inline;overflow:visible;fill:#6b4f4f;fill-opacity:1;stroke:#6b4f4f;stroke-width:1.03231;stroke-linecap:round;stroke-dasharray:none;stroke-opacity:1;paint-order:markers fill stroke;enable-background:accumulate;stop-color:#000000"
       d="m 81.510962,183.30756 v 8.78818 c 0,4.59407 3.968011,8.28283 8.8669,8.28283 4.898857,0 8.866867,-3.68876 8.866867,-8.28283 v -4.61588 l -0.229573,-0.0182 c -2.293299,-0.18578 -4.819002,0.24757 -8.860406,-2.17168 -3.601972,-2.15621 -5.484378,-1.85584 -8.384278,-1.97201 z m 0.499506,0.51576 c 2.773358,0.0895 4.480238,-0.14431 7.887402,1.89527 4.00927,2.40001 6.684924,2.09244 8.847353,2.23086 v 4.14629 c 0,4.30649 -3.718424,7.78333 -8.367361,7.78333 -4.64897,0 -8.367394,-3.47684 -8.367394,-7.78333 z"
       id="path23" />
    <path
       style="baseline-shift:baseline;display:inline;overflow:visible;fill:#6b4f4f;fill-opacity:1;stroke:#6b4f4f;stroke-width:1.03231;stroke-linecap:round;stroke-dasharray:none;stroke-opacity:1;paint-order:markers fill stroke;enable-background:accumulate;stop-color:#000000"
       d="m 112.59027,163.3969 c -2.89554,1e-5 -5.23443,2.33894 -5.23443,5.23441 v 5.84318 l 0.007,-0.003 v 0.37853 l 0.003,-0.0325 c 0,0 -0.1006,0.68809 0.38895,1.19673 0.46338,0.48149 1.02958,0.48975 1.02958,0.48975 h 2.32844 2.9645 2.32843 c 0,0 0.56617,-0.008 1.02958,-0.48975 0.48948,-0.50865 0.38895,-1.19673 0.38895,-1.19673 l 0.003,0.0325 v -0.75056 -0.001 c 0.007,-1.80128 0.004,-3.64816 0.004,-5.46465 3e-5,-2.89551 -2.34269,-5.23684 -5.23822,-5.23682 z m -0.026,0.50211 h 0.03 c 2.62747,-2e-5 4.73496,2.10747 4.73492,4.7349 0,1.8176 0.003,3.66439 -0.004,5.464 v 6.7e-4 0.76812 l 0.003,0.0169 c 0,0 0.0519,0.46629 -0.25369,0.78439 -0.33233,0.34525 -0.66923,0.3369 -0.66923,0.3369 h -2.3291 -2.9645 -2.32843 v 0 c 0,0 -0.33694,0.008 -0.66924,-0.3369 -0.30613,-0.31808 -0.25365,-0.78439 -0.25365,-0.78439 l 0.003,-0.0169 v -0.9795 l -0.007,-0.001 v -5.25457 c 0,-2.61848 2.09389,-4.71805 4.70891,-4.7323 z"
       id="path25"
       sodipodi:nodetypes="csccccsccccccccsscccssscccccccccsccccscc" />
    <path
       style="baseline-shift:baseline;display:inline;overflow:visible;fill:#6b4f4f;fill-opacity:1;stroke:#6b4f4f;stroke-width:1.03231;stroke-linecap:round;stroke-linejoin:round;stroke-dasharray:none;stroke-opacity:1;paint-order:stroke fill markers;enable-background:accumulate;stop-color:#000000"
       d="m 121.14041,185.4981 c -6.4374,-0.0232 -12.4996,3.38639 -15.78582,9.08282 -0.0183,0.0262 -0.024,0.0342 -0.0385,0.054 -4.69812,7.31627 -14.01867,10.12193 -21.975004,6.6152 -0.126441,-0.0559 -0.09327,0.0968 -0.148786,0.22337 -0.05548,0.12625 -0.05844,0.22279 -0.05285,0.23386 8.178181,3.6045 17.76767,0.71773 22.59683,-6.80252 0.0246,-0.0361 0.0273,-0.0393 0.0506,-0.0741 3.65316,-6.33244 10.82966,-9.75797 18.05052,-8.61583 0.1361,0.0214 0.26387,-0.0714 0.28552,-0.20747 0.0213,-0.13634 -0.0718,-0.2642 -0.20813,-0.28553 -0.92795,-0.14678 -1.85496,-0.22041 -2.77459,-0.22374 z"
       id="path26"
       sodipodi:nodetypes="ccccccccscccc" />
    <path
       id="path27"
       style="fill:#6b4f4f;fill-opacity:1;stroke:#6b4f4f;stroke-width:1.03231;stroke-linecap:round;stroke-linejoin:round;stroke-dasharray:none;stroke-opacity:1;paint-order:stroke fill markers"
       d="m 91.210173,191.84304 a 0.83251025,0.83251025 0 0 1 -0.83251,0.83251 0.83251025,0.83251025 0 0 1 -0.832511,-0.83251 0.83251025,0.83251025 0 0 1 0.832511,-0.83251 0.83251025,0.83251025 0 0 1 0.83251,0.83251 z" />
    <path
       id="path28"
       style="fill:#6b4f4f;fill-opacity:1;stroke:#6b4f4f;stroke-width:1.03231;stroke-linecap:round;stroke-linejoin:round;stroke-dasharray:none;stroke-opacity:1;paint-order:stroke fill markers"
       d="m 99.626718,207.92931 a 0.83251025,0.83251025 0 0 1 -0.83251,-0.83251 0.83251025,0.83251025 0 0 1 0.83251,-0.83251 0.83251025,0.83251025 0 0 1 0.832512,0.83251 0.83251025,0.83251025 0 0 1 -0.832512,0.83251 z" />
    <path
       style="baseline-shift:baseline;display:inline;overflow:visible;fill:#6b4f4f;fill-opacity:1;stroke:#6b4f4f;stroke-width:1.03231;stroke-linecap:round;stroke-linejoin:round;stroke-dasharray:none;stroke-opacity:1;paint-order:stroke fill markers;enable-background:accumulate;stop-color:#000000"
       d="m 120.96439,194.78969 c -2.99104,0.0362 -5.84908,1.59231 -7.46855,4.26857 -2.15927,3.56834 -1.53315,8.16405 1.50241,11.02426 a 0.24975308,0.24975308 0 0 0 0.35319,-0.0104 0.24975308,0.24975308 0 0 0 -0.0103,-0.35317 c -2.86634,-2.70072 -3.45675,-7.03245 -1.41787,-10.40182 2.03888,-3.36938 6.15012,-4.85624 9.87241,-3.57004 a 0.24975308,0.24975308 0 0 0 0.31805,-0.15415 0.24975308,0.24975308 0 0 0 -0.15482,-0.31804 c -0.98552,-0.34054 -1.99742,-0.49726 -2.9944,-0.4852 z"
       id="path29" />
    <path
       style="baseline-shift:baseline;display:inline;overflow:visible;fill:#6b4f4f;fill-opacity:1;stroke:#6b4f4f;stroke-width:1.03231;stroke-linecap:round;stroke-linejoin:round;stroke-dasharray:none;stroke-opacity:1;paint-order:stroke fill markers;enable-background:accumulate;stop-color:#000000"
       d="m 120.36731,192.46777 c -3.61003,0.23088 -6.98043,2.20648 -8.91112,5.44189 -2.57426,4.31387 -1.96213,9.81664 1.49722,13.45935 a 0.24975308,0.24975308 0 0 0 0.35318,0.009 0.24975308,0.24975308 0 0 0 0.009,-0.35252 c -3.30669,-3.48198 -3.89088,-8.73679 -1.43021,-12.86033 2.46066,-4.12354 7.36208,-6.10364 11.9966,-4.84678 a 0.24975308,0.24975308 0 0 0 0.30633,-0.1756 0.24975308,0.24975308 0 0 0 -0.17559,-0.30634 c -1.21214,-0.32872 -2.44215,-0.44573 -3.6455,-0.36877 z"
       id="path30" />
    <path
       style="baseline-shift:baseline;display:inline;overflow:visible;fill:#6b4f4f;fill-opacity:1;stroke:#6b4f4f;stroke-width:1.03231;stroke-linecap:round;stroke-linejoin:round;stroke-dasharray:none;stroke-opacity:1;paint-order:stroke fill markers;enable-background:accumulate;stop-color:#000000"
       d="m 121.81641,190.16731 c -4.91843,-0.26989 -9.6718,2.17466 -12.28409,6.48317 -2.98548,4.92402 -2.5195,11.20247 1.16032,15.63169 a 0.24975308,0.24975308 0 0 0 0.35186,0.0325 0.24975308,0.24975308 0 0 0 0.032,-0.35187 c -3.54486,-4.26677 -3.99338,-10.3094 -1.11739,-15.05282 2.87599,-4.74343 8.44152,-7.14018 13.86389,-5.97001 a 0.24975308,0.24975308 0 0 0 0.29724,-0.19122 0.24975308,0.24975308 0 0 0 -0.19187,-0.29723 c -0.70358,-0.15184 -1.40921,-0.24567 -2.11182,-0.28423 z"
       id="path31" />
    <path
       style="baseline-shift:baseline;display:inline;overflow:visible;fill:#6b4f4f;fill-opacity:1;stroke:#6b4f4f;stroke-width:1.03231;stroke-linecap:round;stroke-linejoin:round;stroke-dasharray:none;stroke-opacity:1;paint-order:stroke fill markers;enable-background:accumulate;stop-color:#000000"
       d="m 121.50096,187.82848 c -5.55751,-0.14908 -10.86559,2.64422 -13.86326,7.46528 -3.42588,5.50977 -3.142,12.55456 0.71609,17.77084 a 0.24975308,0.24975308 0 0 0 0.34925,0.0527 0.24975308,0.24975308 0 0 0 0.052,-0.34927 c -3.73724,-5.05287 -4.0119,-11.87301 -0.69331,-17.2102 3.31855,-5.33718 9.55612,-8.10763 15.74094,-6.99113 a 0.24975308,0.24975308 0 0 0 0.29071,-0.20162 0.24975308,0.24975308 0 0 0 -0.2016,-0.29008 c -0.79811,-0.14408 -1.59696,-0.2252 -2.39087,-0.2465 z"
       id="path32" />
    <path
       d="m 112.97216,159.01041 -0.0781,0.0742 c -2.26865,2.15065 -4.9806,3.77778 -7.94584,4.76744 l -0.1029,0.0344 -0.0454,0.0983 c -0.50207,1.09205 -0.78109,2.30936 -0.78109,3.59279 v 28.82762 c 0.17059,-0.20486 0.33703,-0.41431 0.49937,-0.62829 v -28.19933 c 0,-1.17915 0.25758,-2.29184 0.7071,-3.29886 2.94702,-1.00281 5.64505,-2.62132 7.91657,-4.74988 4.2173,0.28136 7.52716,3.756 7.52716,8.04874 v 17.92502 c 0.15695,-0.004 0.31396,-0.005 0.47133,-0.004 l -1.6e-4,1.7e-4 c 0.009,4e-5 0.0186,-5e-5 0.0283,0 v -17.92072 c 0,-4.58288 -3.56863,-8.3106 -8.08833,-8.56121 z"
       style="baseline-shift:baseline;display:inline;overflow:visible;fill:#6b4f4f;fill-opacity:1;stroke:#6b4f4f;stroke-width:1.03231;stroke-linecap:round;stroke-dasharray:none;stroke-opacity:1;paint-order:markers fill stroke;enable-background:accumulate;stop-color:#000000"
       id="path33" />
    <path
       id="path34"
       style="fill:#6b4f4f;fill-opacity:1;stroke:#6b4f4f;stroke-width:1.03231;stroke-linecap:round;stroke-linejoin:round;stroke-dasharray:none;stroke-opacity:1;paint-order:stroke fill markers"
       d="m 96.43524,173.49145 a 3.330041,3.330041 0 0 1 -3.330041,3.33004 3.330041,3.330041 0 0 1 -3.330041,-3.33004 3.330041,3.330041 0 0 1 3.330041,-3.33004 3.330041,3.330041 0 0 1 3.330041,3.33004 z" />
  </g>
</svg>
